<?xml version="1.0" encoding="UTF-8"?>
<svg id="_图层_1" data-name="图层_1" xmlns="http://www.w3.org/2000/svg" version="1.1" viewBox="0 0 593.4 156.3">
  <!-- Generator: Adobe Illustrator 30.6.0, SVG Export Plug-In . SVG Version: 2.1.4 Build 109)  -->
  <defs>
    <style>
      .st0 {
        fill: #f1f1f1;
      }

      .st1 {
        fill: #fff;
      }

      .st2 {
        fill: #5fe3d4;
      }
    </style>
  </defs>
  <path class="st1" d="M360.1,38c0,21.4-16.7,38.1-38.1,38-21.5,0-38.2-16.6-38.2-37.8C283.8,17,300.6,0,321.6,0c21.7,0,38.6,16.6,38.6,38ZM351.3,38.4c.2-17.3-13.8-29.6-28.6-30-17.6-.5-29.6,13.7-30.1,28.6-.6,17.8,14.1,30.7,28.8,30.7,17,0,29.7-12.4,29.9-29.3h0Z"/>
  <path class="st1" d="M0,74.3V1.8h1.5c7.4,0,14.9,0,22.3.3,5.8.2,11.7.7,17.1,3.1,10.7,4.7,16.9,12.9,19.3,24.2,1.8,8.9,1.5,17.7-2.4,26.2-4.7,10.2-12.5,16.5-23.8,18-3.4.5-6.8.7-10.2.8-7.5.1-15,0-22.5,0H0h0ZM8.3,66c.3,0,.4.1.6.1,7.4-.3,14.8-.2,22.1-.9,8.4-.7,14.7-5.1,18.6-12.7,3.2-6.2,3.5-12.9,2.5-19.6-1.7-11.1-9.7-19.7-20.8-21.4-6-.9-12.1-1-18.1-1.4-1.6-.1-3.2,0-4.9,0v55.9Z"/>
  <path class="st1" d="M592.9,76.8c-3.7,0-7,0-10.3,0-.5,0-1-.6-1.3-1-7.8-10-15.6-20.1-23.3-30.2-1.1-1.5-2.3-2.2-4.3-1.6v1.5c0,9.9,0,19.8,0,29.7,0,1.2-.2,1.7-1.6,1.7-2.3-.1-4.6,0-6.9,0V4.3c.4,0,.8,0,1.2,0,7.9,0,15.9.1,23.8.3,3.4,0,6.7.6,9.8,2,8.4,3.6,11.6,11.9,10.9,19.5-.9,9.5-7.6,15.7-17.3,17.2-2,.3-4.1.4-6.3.7,8.5,10.9,16.9,21.8,25.5,32.9h0ZM553.8,35.2c5,0,9.9,0,14.8,0,2.1,0,4.2-.5,6.2-1,3.1-.8,5.5-2.6,6.7-5.7,2.7-7-.6-13.4-7.9-15-2.2-.5-4.4-.7-6.7-.8-4.3-.1-8.7,0-13.1,0v22.6h0Z"/>
  <path class="st1" d="M470.1,4.3h42v8.4h-33.5v20.7h33.2v8.3h-33.2v26.4h33.2v8.5h-41.7V4.3h0Z"/>
  <path class="st1" d="M165.6,12.4c-2.4,1.8-4.6,3.6-6.8,5.3-1.5-1.7-2.9-3.4-4.4-5-3-3.2-6.8-4.5-11.1-3.7-6.1,1.2-8.7,8.6-4.7,13.8,2.1,2.7,5,4.8,7.7,7.1,3.7,3.1,7.6,5.9,11.2,9.1,3.7,3.3,6.8,7.1,8.2,12,3.5,11.8-4.8,21.6-13.7,24.2-9.2,2.7-17,0-23.4-7-2.2-2.4-4-5.2-5.4-8.2,2.4-1.4,4.8-2.7,7.1-4.1,1.1,1.7,2.2,3.4,3.3,5,2.3,3.1,5.1,5.7,9,6.7,7.1,1.6,14.9-4.2,14.6-11-.2-3.6-1.7-6.8-4.3-9.2-3.8-3.5-7.9-6.8-11.9-10.2-2.8-2.4-5.8-4.7-8.4-7.4-5.8-6.2-6.5-15.8-1.7-22.3,4.3-5.9,10.2-7.8,17.2-7.1,6.7.6,11.3,4.8,15.3,9.7.6.8,1.2,1.6,2,2.6Z"/>
  <path class="st1" d="M444.2,3.1c-2,4.8-3.9,9.3-5.8,13.7-8.4,19.7-16.8,39.4-25.2,59.2-.4.8-.6,1.4-1.7,1.4-1.1,0-1.4-.6-1.7-1.4-10-23.8-20-47.6-29.9-71.4-.2-.4-.3-.9-.6-1.5,3,0,5.8,0,8.6,0,.4,0,.8.7,1,1.1,4.2,10,8.4,20,12.5,30.1,3.1,7.5,6.2,15,9.3,22.5.2.5.5,1,.8,1.7.3-.7.6-1.1.8-1.6,7.4-17.5,14.8-35,22.2-52.5.4-1,.9-1.3,1.9-1.3,2.5,0,5,0,7.8,0h0Z"/>
  <path class="st1" d="M523.4,134.4h8.4v4.6h-8.3v15.5h-6v-15.4h-19.2c0,.4,0,.8-.1,1.2-.1,0-.2.1-.4.2-2.5-3.4-5.1-6.7-7.7-10.1v24.2h-6.1v-22.7c-2.9,4.8-6,9.3-9.9,13.7,0-2.3,0-4.2,0-6.2,0-.4.4-.8.6-1.2,3.7-5.9,6.4-12.1,8.4-18.7,0-.3.1-.6.3-1.1h-8.5v-4.6h8.9v-7.9h-8.2v-4.6c7.5-.4,15.1.7,22.6-1.7v5c-2.6.4-5.3.8-8,1.3v7.9h8v4.6h-7.9c.7,1.9,1.2,3.7,2,5.2,1.7,3.4,3.6,6.7,5.5,10.1.2.4.7.8,1.1.8,6.1,0,12.3,0,18.6,0v-36.3h6v36.4h0Z"/>
  <path class="st1" d="M557.5,109.8v-4.6h13.7v-7.2h6.3v7.1h15.1v4.6h-15v8.8h13c-.2,1.8,0,3.6-.5,5.1-2.4,7.1-6.1,13.4-11.8,18.7,1.4.9,2.6,1.8,3.9,2.5,3.3,1.7,6.7,3.4,10,5,.8.4,1.2.8,1.1,1.7,0,1,0,2,0,3.1-6.8-2.2-13.2-5-19.2-9-6.2,3.8-12.8,6.7-19.9,9.3,0-1.5,0-2.8,0-4.1,0-.3.6-.7,1-.9,3.7-1.8,7.5-3.5,11.2-5.3,1.2-.6,2.3-1.5,3.6-2.3-5.1-5-8.5-10.8-11.1-17.5,2.1,0,4,0,6,0,.4,0,.8.7,1,1.2,2.1,4.6,4.7,8.8,8.2,12.7,4.4-4.4,7.2-9.6,9.4-15.4h-25.8v-4.7h13.3v-8.8h-13.6Z"/>
  <path class="st1" d="M454.1,113.4h-37.3v-4.9h21.9c-1-3.6-1.9-6.9-2.8-10.4,1.6,0,3.1,0,4.7,0,.4,0,1,.6,1.2,1,1.1,3,2,6.1,3.1,9.3h19.6c0,1.4,0,2.8,0,4.1,0,.4-.5.9-.8,1.2-10.4,9.6-20.8,19.2-31.3,28.8-.3.3-.6.5-1,.8,1.7,2.7,4.1,3.6,6.9,3.7,3.6.2,7.2,0,10.8,0h20.4v4.8c-.4,0-.8,0-1.2,0-9.5,0-19,0-28.5,0-3.3,0-6.6-.5-9.5-2.4-1.2-.8-2.2-1.8-3.3-2.7-4,2.9-8.4,5.2-13.8,5.9,0-1.3,0-2.5,0-3.8,0-.3.4-.7.7-.8,3.9-1.3,7.1-3.6,10-6.4,9.7-9.2,19.5-18.2,29.2-27.3.4-.3.8-.6,1.2-.8,0-.2-.2-.3-.3-.5h0Z"/>
  <path class="st1" d="M407.5,149.2c-9.8-5.1-17.9-11.7-24.4-20.9,0,.8,0,1.3,0,1.8,0,4.9,0,9.9,0,14.9,0,1.1,0,2.2-.3,3.2-.7,3.1-3.3,5.1-7,5.2-2.3,0-4.7,0-7.1,0v-4.8h3.8c3.3,0,4.2-.9,4.2-4.3v-32.1h-24.7v-4.7h24.7v-9.8c2,0,3.9,0,5.7,0,.3,0,.7.8.7,1.2,0,2.7,0,5.5,0,8.4h9.8v-8h6v8.1h8.7v4.8h-24.4c0,3.2-.2,6,1.6,8.8,5.8,9.1,12.8,17.1,21.9,23.1.5.3.8,1.1.9,1.6.2,1.1,0,2.1,0,3.4h0Z"/>
  <path class="st1" d="M14.4,129.5c6.2,8.6,12.1,16.8,18.3,25.3-2.2,0-4.2,0-6.1,0-.4,0-.7-.6-1-1-5.4-7.5-10.8-14.9-16.1-22.4-1.1-1.5-2.2-2.1-4.1-1.6v25H.1v-1.7c0-17,0-33.9,0-50.9,0-1.4.3-1.8,1.8-1.8,5.2.2,10.4.1,15.6.3,4.8.2,9.2,1.4,12,5.7,3.2,5,3.5,10.3.9,15.6-2.5,5.1-7.1,7-12.5,7.5-1,0-2.1,0-3.5,0h0ZM5.4,105.6v18.6c2.5,0,4.9,0,7.2,0,2.4,0,4.9-.1,7.2-.6,4.5-.9,6.7-3.8,6.8-8.5,0-4.7-2-7.9-6.6-8.6-4.8-.7-9.7-.7-14.7-1h0Z"/>
  <path class="st1" d="M98.7,119.1c2.9-3,6-5.5,9.9-6.6,7.9-2.3,15.8.8,20.7,8.1,6.4,9.5,4.3,22.9-4.6,30-7.5,6-17.8,5-24.1-2.4-.6-.6-1.1-1.3-1.8-2.2v7h-4.8v-55.6h4.8v21.7h0ZM98.4,132.7c0,4.2,1.1,8,3.8,11.3,5.5,6.8,15,7.3,21,1,4.9-5.1,6.2-12.7,3.4-19.2-3.4-7.7-11.3-11.2-18.7-8.3-5.8,2.3-9.4,8.1-9.4,15.2h0Z"/>
  <path class="st1" d="M94.2,74.3h-8.4V1.8h8.4v72.4Z"/>
  <path class="st1" d="M42,135.4c0-6.7,2.1-12.1,6.6-16.5,7.3-7.2,18.6-7.2,25.8,0,8.8,8.6,9,22.9.5,31.7-8.7,9-23.1,7.1-29.8-3.9-2.2-3.6-3.2-7.5-3.1-11.2h0ZM76.1,135.1c0-4.9-1.7-9-5.1-12.4-5.5-5.4-13.5-5.3-18.9.1-5.2,5.3-6.6,13.6-3.3,20.2,4.8,9.7,16.8,11.1,23.6,2.9,2.6-3.1,3.8-6.7,3.7-10.8Z"/>
  <path class="st1" d="M182.5,135c0,6.8-2.5,12.5-7.6,16.9-7.3,6.4-20.5,6.3-27.7-4.3-6.6-9.6-4.5-23.3,4.8-30.4,7.9-6.1,19.4-4.5,25.8,3.7,3.2,4.1,4.8,8.6,4.7,14h0ZM163.1,151.2c3,0,5.9-.9,8.4-2.9,7.7-6.2,8.3-18.1,1.2-25.4-5.8-5.9-14.4-5.6-19.8.6-4.7,5.4-5.5,11.6-3.2,18.2,2.1,5.9,7.3,9.5,13.4,9.5h0Z"/>
  <path class="st1" d="M549.9,124.5c2.2-.7,4.4-1.3,6.6-1.9,0,1.4,0,2.6,0,3.7,0,.4-.5.9-.9,1-1.6.7-3.2,1.4-4.8,1.9-.9.3-1.1.7-1.1,1.6,0,5.4,0,10.8,0,16.3,0,4.5-1.9,6.5-6.4,6.8-1.9.1-3.8,0-5.9,0v-4.7h3.9c1.8,0,2.2-.3,2.2-2.1v-15.7c-2.7.4-5.2.9-7.8,1.3v-5.3c2.3-.4,4.6-.8,6.8-1.3.4,0,.9-.5.9-.7,0-4.3,0-8.6,0-13h-7.2v-4.6h7.1v-9.6h6.1v9.5h6.2v4.6h-6v12.1h0Z"/>
  <path class="st1" d="M273.8,142.6c1.3.9,2.5,1.8,3.7,2.6-3.2,6.7-13.7,10.7-22.7,8.7-8.9-2-15.3-10.5-15.4-20.4,0-10.4,6.3-18.9,15.9-21.2,8.9-2.1,18.7,1.8,22.3,8.9-1.2.8-2.4,1.6-3.8,2.6-3.5-4.9-8.2-7.2-14.2-7-4.4.1-8.1,1.8-11,5-6.2,6.7-5.5,17.4,1.2,23.9,5.3,5.1,16.9,6.3,24.1-3.1h0Z"/>
  <path class="st1" d="M285.7,148.6c.2-.2.3-.4.4-.5.8-1,1.7-2,2.6-3,1,.9,2,1.9,3.1,2.7,3.3,2.4,7.1,2.3,9.7-.3,2.9-2.9,2.8-7.3-.4-9.9-1.7-1.4-3.7-2.4-5.5-3.6-1.9-1.3-3.9-2.6-5.5-4.2-4.6-4.8-3.8-15.7,5.5-17.7,2.2-.5,4.4-.4,6.6.6,2.3,1.1,4.2,2.7,6,4.6-1.1,1.1-2,2.2-3,3.3-1.2-.9-2.3-1.9-3.5-2.6-1.6-1-3.3-1.5-5.2-1.2-2.2.4-3.6,1.7-4.3,3.8-.7,2.1-.3,4.2,1.4,5.6,1.6,1.4,3.4,2.4,5.1,3.7,2.2,1.5,4.6,2.9,6.4,4.7,6.1,6.1,3.1,17.1-5.2,19.4-5,1.4-10.6-.8-14.1-5.4h0Z"/>
  <path class="st1" d="M209.2,149.5c0,1.3,0,2.5,0,3.7,0,.3-.4.8-.7.8-2.1.1-4.2.4-6.2.1-2.2-.3-3.6-2.3-3.8-4.8,0-.9,0-1.8,0-2.7v-29.3h-6.6v-4.5h6.5v-15.5h4.9v15.4h7.6v4.5h-7.6v28.4c0,3.7,0,3.8,3.9,3.8h2.1Z"/>
  <path class="st1" d="M223.5,113.8h4.7v40h-4.7v-40Z"/>
  <path class="st1" d="M352,147.3c0-2,0-3.8,0-5.7,0-.3.3-.7.6-.8,7.6-3,14.2-7.7,20.4-12.8,0,0,.2,0,.4,0,0,1.8,0,3.5,0,5.3,0,.3-.3.7-.5.9-6,5.7-12.8,10-20.4,13.1,0,0-.2,0-.6,0h0Z"/>
  <path class="st1" d="M368.2,128.4c-1.8,0-3.4,0-5,0-.4,0-.8-.3-1-.5-2.3-3.9-3.8-8.2-4.6-12.6,0,0,0-.2.1-.4,1.8,0,3.6,0,5.4,0,.3,0,.8.4.8.7.5,4.4,2.1,8.5,4.2,12.3,0,.1,0,.3,0,.6h0Z"/>
  <path class="st1" d="M514.1,128.4c-4.8-3.3-9.9-5.2-15.2-6.2v-4.8c1.5.3,3,.5,4.4.9,3.3,1,6.6,2.2,9.9,3.3.7.2,1,.7,1,1.5,0,1.7,0,3.3,0,5.4Z"/>
  <path class="st1" d="M390.9,128.4c2.5-4.4,4.1-8.7,4.6-13.5h6.3c-.8,4.6-2.3,9-4.9,13-.2.3-.6.5-.9.5-1.6,0-3.2,0-5.2,0Z"/>
  <path class="st1" d="M500.3,103.4c5.1.4,9.9,1.4,14.2,3.9.3.2.5.6.5.9,0,1.8,0,3.6,0,5.6-.6-.3-1-.6-1.4-.8-3.7-2.3-7.7-3.8-12-4.5-.9-.2-1.4-.4-1.3-1.5,0-1.1,0-2.2,0-3.6h0Z"/>
  <path class="st1" d="M225.9,106.8c-2.2,0-4.1-1.9-4.1-4.2,0-2.3,1.9-4.4,4-4.4,2.2,0,4,1.9,4,4.3,0,2.4-1.7,4.3-4,4.3h0Z"/>
  <path class="st1" d="M261.2,15.8c-2.2,1.7-4.3,3.4-6.4,4.9-2.1-2-4-4-6.2-5.7-16.6-12.9-41.6-6.4-48.3,14.3-5.7,17.5,5.5,35.3,23.5,38.1,12.1,1.9,22.1-1.7,30.2-10.8.2-.2.3-.5.5-.8,2.4,1.8,4.6,3.5,6.8,5.2-4.4,5.7-9.8,10-16.5,12.4-10.4,3.7-21,4-31.2-.1-13.8-5.5-21.6-16-23.3-30.8-1.4-12.3,2.1-23,11.1-31.7,6.5-6.3,14.4-9.7,23.4-10.5,9.7-.9,18.9.9,27.1,6.4,3.6,2.4,6.7,5.5,9.3,9.2Z"/>
  <path class="st2" d="M230,38.2c6.1-4.5,12.1-9,18.2-13.5-4.3-5.8-11.4-9.6-19.4-9.6-13.2,0-23.9,10.3-23.9,23s10.7,23,23.9,23,14.9-3.7,19.3-9.4c-6-4.5-12-9-18-13.6h0Z"/>
  <path class="st0" d="M234.3,38.1c0,2.4-1.8,4.3-4.2,4.3-2.4,0-4.3-1.8-4.3-4.2s1.8-4.3,4.2-4.3c2.4,0,4.3,1.8,4.3,4.2Z"/>
  <path class="st1" d="M235.2,38.1c0,2.9-2.2,5.1-5.1,5.1-2.9,0-5.1-2.2-5.1-5.1s2.2-5.1,5.1-5.1c2.9,0,5.1,2.2,5.1,5.1Z"/>
</svg>